<?xml version="1.0" encoding="UTF-8" standalone="no"?>
<!DOCTYPE svg PUBLIC "-//W3C//DTD SVG 1.1//EN"
 "http://www.w3.org/Graphics/SVG/1.1/DTD/svg11.dtd">
<!-- Generated by graphviz version 2.40.1 (20161225.0304)
 -->
<!-- Title: %3 Pages: 1 -->
<svg width="803pt" height="190pt"
 viewBox="0.00 0.00 802.71 190.00" xmlns="http://www.w3.org/2000/svg" xmlns:xlink="http://www.w3.org/1999/xlink">
<g id="graph0" class="graph" transform="scale(1 1) rotate(0) translate(4 186)">
<title>%3</title>
<polygon fill="#ffffff" stroke="transparent" points="-4,4 -4,-186 798.7061,-186 798.7061,4 -4,4"/>
<text text-anchor="middle" x="397.353" y="-6.8" font-family="Times,serif" font-size="14.00" fill="#000000">Functor C D G</text>
<g id="clust1" class="cluster">
<title>cluster_C</title>
<polygon fill="none" stroke="#000000" stroke-dasharray="1,5" points="449.0439,-30 449.0439,-154 786.7061,-154 786.7061,-30 449.0439,-30"/>
<text text-anchor="middle" x="617.875" y="-138.8" font-family="Times,serif" font-size="14.00" fill="#000000">C</text>
</g>
<g id="clust2" class="cluster">
<title>cluster_D</title>
<polygon fill="none" stroke="#000000" stroke-dasharray="1,5" points="8,-50 8,-174 418.9336,-174 418.9336,-50 8,-50"/>
<text text-anchor="middle" x="213.4668" y="-158.8" font-family="Times,serif" font-size="14.00" fill="#000000">D</text>
</g>
<!-- a -->
<g id="node1" class="node">
<title>a</title>
<ellipse fill="none" stroke="#000000" cx="751.7061" cy="-65" rx="27" ry="18"/>
<text text-anchor="middle" x="751.7061" y="-60.8" font-family="Times,serif" font-size="14.00" fill="#000000">a</text>
</g>
<!-- a&#45;&gt;a -->
<g id="edge1" class="edge">
<title>a&#45;&gt;a</title>
<path fill="none" stroke="#000000" d="M759.5613,-82.4099C761.0276,-92.0879 758.4092,-101 751.7061,-101 747.5166,-101 744.9227,-97.5187 743.9245,-92.5449"/>
<polygon fill="#000000" stroke="#000000" points="747.4235,-92.3842 743.8508,-82.4099 740.4237,-92.4351 747.4235,-92.3842"/>
<text text-anchor="middle" x="751.7061" y="-103.8" font-family="Times,serif" font-size="14.00" fill="#000000">id</text>
</g>
<!-- b -->
<g id="node2" class="node">
<title>b</title>
<ellipse fill="none" stroke="#000000" cx="616.7061" cy="-56" rx="27" ry="18"/>
<text text-anchor="middle" x="616.7061" y="-51.8" font-family="Times,serif" font-size="14.00" fill="#000000">b</text>
</g>
<!-- a&#45;&gt;b -->
<g id="edge2" class="edge">
<title>a&#45;&gt;b</title>
<path fill="none" stroke="#000000" d="M724.7113,-63.2003C704.3848,-61.8453 676.2821,-59.9717 653.8383,-58.4755"/>
<polygon fill="#000000" stroke="#000000" points="653.8648,-54.9696 643.6541,-57.7965 653.3991,-61.9541 653.8648,-54.9696"/>
<text text-anchor="middle" x="684.2061" y="-63.8" font-family="Times,serif" font-size="14.00" fill="#000000">g</text>
</g>
<!-- c -->
<g id="node3" class="node">
<title>c</title>
<ellipse fill="none" stroke="#000000" cx="484.0439" cy="-90" rx="27" ry="18"/>
<text text-anchor="middle" x="484.0439" y="-85.8" font-family="Times,serif" font-size="14.00" fill="#000000">c</text>
</g>
<!-- a&#45;&gt;c -->
<g id="edge4" class="edge">
<title>a&#45;&gt;c</title>
<path fill="none" stroke="#000000" d="M738.4277,-80.7388C725.9167,-93.7155 705.8957,-110 684.2061,-110 684.2061,-110 684.2061,-110 550.375,-110 538.7718,-110 526.4944,-107.16 515.6986,-103.6203"/>
<polygon fill="#000000" stroke="#000000" points="516.8569,-100.3175 506.2624,-100.2344 514.4927,-106.9062 516.8569,-100.3175"/>
<text text-anchor="middle" x="616.7061" y="-112.8" font-family="Times,serif" font-size="14.00" fill="#000000">f . g</text>
</g>
<!-- b&#45;&gt;c -->
<g id="edge3" class="edge">
<title>b&#45;&gt;c</title>
<path fill="none" stroke="#000000" d="M591.4411,-62.4752C571.101,-67.6881 542.2672,-75.0779 519.5966,-80.8882"/>
<polygon fill="#000000" stroke="#000000" points="518.4847,-77.56 509.6667,-83.4331 520.2226,-84.3408 518.4847,-77.56"/>
<text text-anchor="middle" x="550.375" y="-76.8" font-family="Times,serif" font-size="14.00" fill="#000000">f</text>
</g>
<!-- G a -->
<g id="node4" class="node">
<title>G a</title>
<ellipse fill="none" stroke="#000000" cx="383.9336" cy="-90" rx="27" ry="18"/>
<text text-anchor="middle" x="383.9336" y="-85.8" font-family="Times,serif" font-size="14.00" fill="#000000">G a</text>
</g>
<!-- c&#45;&gt;G a -->
<g id="edge9" class="edge">
<title>c&#45;&gt;G a</title>
<path fill="none" stroke="#000000" d="M449.0474,-90C440.0226,-90 430.2776,-90 421.1446,-90"/>
<polygon fill="#000000" stroke="#000000" points="428.9338,-86.5005 418.9336,-90 428.9334,-93.5005 428.9338,-86.5005"/>
<text text-anchor="middle" x="433.9888" y="-92.8" font-family="Times,serif" font-size="14.00" fill="#000000">G</text>
</g>
<!-- G a&#45;&gt;G a -->
<g id="edge5" class="edge">
<title>G a&#45;&gt;G a</title>
<path fill="none" stroke="#000000" d="M391.7888,-107.4099C393.2551,-117.0879 390.6367,-126 383.9336,-126 379.7441,-126 377.1503,-122.5187 376.152,-117.5449"/>
<polygon fill="#000000" stroke="#000000" points="379.651,-117.3842 376.0784,-107.4099 372.6512,-117.4351 379.651,-117.3842"/>
<text text-anchor="middle" x="383.9336" y="-128.8" font-family="Times,serif" font-size="14.00" fill="#000000">G id</text>
</g>
<!-- G b -->
<g id="node5" class="node">
<title>G b</title>
<ellipse fill="none" stroke="#000000" cx="212.2979" cy="-76" rx="27" ry="18"/>
<text text-anchor="middle" x="212.2979" y="-71.8" font-family="Times,serif" font-size="14.00" fill="#000000">G b</text>
</g>
<!-- G a&#45;&gt;G b -->
<g id="edge6" class="edge">
<title>G a&#45;&gt;G b</title>
<path fill="none" stroke="#000000" d="M357.1155,-87.8125C328.1049,-85.4462 281.6597,-81.6577 249.2131,-79.0111"/>
<polygon fill="#000000" stroke="#000000" points="249.4618,-75.5199 239.2103,-78.1952 248.8926,-82.4967 249.4618,-75.5199"/>
<text text-anchor="middle" x="309.6284" y="-86.8" font-family="Times,serif" font-size="14.00" fill="#000000">G g</text>
</g>
<!-- G c -->
<g id="node6" class="node">
<title>G c</title>
<ellipse fill="none" stroke="#000000" cx="43" cy="-101" rx="27" ry="18"/>
<text text-anchor="middle" x="43" y="-96.8" font-family="Times,serif" font-size="14.00" fill="#000000">G c</text>
</g>
<!-- G a&#45;&gt;G c -->
<g id="edge8" class="edge">
<title>G a&#45;&gt;G c</title>
<path fill="none" stroke="#000000" d="M367.8519,-104.6674C353.6277,-116.0834 331.7508,-130 309.6284,-130 309.6284,-130 309.6284,-130 116.1362,-130 100.7485,-130 84.7407,-124.384 71.6384,-118.0948"/>
<polygon fill="#000000" stroke="#000000" points="73.154,-114.9384 62.6619,-113.4669 69.9464,-121.1602 73.154,-114.9384"/>
<text text-anchor="middle" x="212.2979" y="-132.8" font-family="Times,serif" font-size="14.00" fill="#000000">G f . g = G f . G g</text>
</g>
<!-- G b&#45;&gt;G c -->
<g id="edge7" class="edge">
<title>G b&#45;&gt;G c</title>
<path fill="none" stroke="#000000" d="M185.8451,-79.9063C157.3535,-84.1136 111.8133,-90.8384 79.8289,-95.5615"/>
<polygon fill="#000000" stroke="#000000" points="78.9272,-92.1566 69.5458,-97.08 79.9499,-99.0815 78.9272,-92.1566"/>
<text text-anchor="middle" x="116.1362" y="-93.8" font-family="Times,serif" font-size="14.00" fill="#000000">G f</text>
</g>
</g>
</svg>
