<?xml version="1.0" encoding="UTF-8" standalone="no"?>
<!DOCTYPE svg PUBLIC "-//W3C//DTD SVG 1.1//EN"
 "http://www.w3.org/Graphics/SVG/1.1/DTD/svg11.dtd">
<!-- Generated by graphviz version 2.40.1 (20161225.0304)
 -->
<!-- Title: %3 Pages: 1 -->
<svg width="857pt" height="308pt"
 viewBox="0.00 0.00 856.71 307.60" xmlns="http://www.w3.org/2000/svg" xmlns:xlink="http://www.w3.org/1999/xlink">
<g id="graph0" class="graph" transform="scale(1 1) rotate(0) translate(4 303.5999)">
<title>%3</title>
<polygon fill="#ffffff" stroke="transparent" points="-4,4 -4,-303.5999 852.7061,-303.5999 852.7061,4 -4,4"/>
<text text-anchor="middle" x="424.353" y="-12.3999" font-family="Times,serif" font-size="14.00" fill="#000000">Functor F 到 G 的自然变换</text>
<g id="clust1" class="cluster">
<title>cluster_C</title>
<polygon fill="none" stroke="#000000" stroke-dasharray="1,5" points="503.0439,-39.5999 503.0439,-163.5999 840.7061,-163.5999 840.7061,-39.5999 503.0439,-39.5999"/>
<text text-anchor="middle" x="671.875" y="-148.3999" font-family="Times,serif" font-size="14.00" fill="#000000">C</text>
</g>
<g id="clust2" class="cluster">
<title>cluster_D</title>
<polygon fill="none" stroke="#000000" stroke-dasharray="1,5" points="8,-35.5999 8,-159.5999 418.9336,-159.5999 418.9336,-35.5999 8,-35.5999"/>
<text text-anchor="middle" x="213.4668" y="-144.3999" font-family="Times,serif" font-size="14.00" fill="#000000">D</text>
</g>
<g id="clust3" class="cluster">
<title>cluster_E</title>
<polygon fill="none" stroke="#000000" stroke-dasharray="1,5" points="8,-167.5999 8,-291.5999 418.9336,-291.5999 418.9336,-167.5999 8,-167.5999"/>
<text text-anchor="middle" x="213.4668" y="-276.3999" font-family="Times,serif" font-size="14.00" fill="#000000">E</text>
</g>
<!-- a -->
<g id="node1" class="node">
<title>a</title>
<ellipse fill="none" stroke="#000000" cx="805.7061" cy="-74.5999" rx="27" ry="18"/>
<text text-anchor="middle" x="805.7061" y="-70.3999" font-family="Times,serif" font-size="14.00" fill="#000000">a</text>
</g>
<!-- a&#45;&gt;a -->
<g id="edge1" class="edge">
<title>a&#45;&gt;a</title>
<path fill="none" stroke="#000000" d="M813.5613,-92.0098C815.0276,-101.6878 812.4092,-110.5999 805.7061,-110.5999 801.5166,-110.5999 798.9227,-107.1186 797.9245,-102.1449"/>
<polygon fill="#000000" stroke="#000000" points="801.4235,-101.9841 797.8508,-92.0098 794.4237,-102.035 801.4235,-101.9841"/>
<text text-anchor="middle" x="805.7061" y="-113.3999" font-family="Times,serif" font-size="14.00" fill="#000000">id</text>
</g>
<!-- b -->
<g id="node2" class="node">
<title>b</title>
<ellipse fill="none" stroke="#000000" cx="670.7061" cy="-65.5999" rx="27" ry="18"/>
<text text-anchor="middle" x="670.7061" y="-61.3999" font-family="Times,serif" font-size="14.00" fill="#000000">b</text>
</g>
<!-- a&#45;&gt;b -->
<g id="edge2" class="edge">
<title>a&#45;&gt;b</title>
<path fill="none" stroke="#000000" d="M778.7113,-72.8003C758.3848,-71.4452 730.2821,-69.5717 707.8383,-68.0754"/>
<polygon fill="#000000" stroke="#000000" points="707.8648,-64.5695 697.6541,-67.3964 707.3991,-71.554 707.8648,-64.5695"/>
<text text-anchor="middle" x="738.2061" y="-73.3999" font-family="Times,serif" font-size="14.00" fill="#000000">g</text>
</g>
<!-- c -->
<g id="node3" class="node">
<title>c</title>
<ellipse fill="none" stroke="#000000" cx="538.0439" cy="-111.5999" rx="27" ry="18"/>
<text text-anchor="middle" x="538.0439" y="-107.3999" font-family="Times,serif" font-size="14.00" fill="#000000">c</text>
</g>
<!-- a&#45;&gt;c -->
<g id="edge4" class="edge">
<title>a&#45;&gt;c</title>
<path fill="none" stroke="#000000" d="M792.4277,-90.3387C779.9167,-103.3154 759.8957,-119.5999 738.2061,-119.5999 738.2061,-119.5999 738.2061,-119.5999 604.375,-119.5999 594.6642,-119.5999 584.211,-118.7443 574.5394,-117.5928"/>
<polygon fill="#000000" stroke="#000000" points="574.7965,-114.0964 564.4236,-116.2535 573.8777,-121.0358 574.7965,-114.0964"/>
<text text-anchor="middle" x="670.7061" y="-122.3999" font-family="Times,serif" font-size="14.00" fill="#000000">f . g</text>
</g>
<!-- b&#45;&gt;c -->
<g id="edge3" class="edge">
<title>b&#45;&gt;c</title>
<path fill="none" stroke="#000000" d="M646.6819,-73.9302C625.7751,-81.1795 595.2445,-91.7659 571.8688,-99.8713"/>
<polygon fill="#000000" stroke="#000000" points="570.6391,-96.5932 562.3376,-103.1762 572.9324,-103.2069 570.6391,-96.5932"/>
<text text-anchor="middle" x="604.375" y="-91.3999" font-family="Times,serif" font-size="14.00" fill="#000000">f</text>
</g>
<!-- functorG -->
<g id="node10" class="node">
<title>functorG</title>
<text text-anchor="middle" x="460.9888" y="-96.3999" font-family="Times,serif" font-size="14.00" fill="#000000">G</text>
</g>
<!-- c&#45;&gt;functorG -->
<g id="edge14" class="edge">
<title>c&#45;&gt;functorG</title>
<path fill="none" stroke="#000000" d="M511.5259,-107.8143C498.9882,-106.0245 484.5651,-103.9656 474.3448,-102.5065"/>
</g>
<!-- functorF -->
<g id="node11" class="node">
<title>functorF</title>
<text text-anchor="middle" x="460.9888" y="-154.3999" font-family="Times,serif" font-size="14.00" fill="#000000">F</text>
</g>
<!-- c&#45;&gt;functorF -->
<g id="edge15" class="edge">
<title>c&#45;&gt;functorF</title>
<path fill="none" stroke="#000000" d="M517.7986,-123.9486C503.5298,-132.6519 484.9056,-144.0118 472.9441,-151.3077"/>
</g>
<!-- G a -->
<g id="node4" class="node">
<title>G a</title>
<ellipse fill="none" stroke="#000000" cx="383.9336" cy="-79.5999" rx="27" ry="18"/>
<text text-anchor="middle" x="383.9336" y="-75.3999" font-family="Times,serif" font-size="14.00" fill="#000000">G a</text>
</g>
<!-- G a&#45;&gt;G a -->
<g id="edge5" class="edge">
<title>G a&#45;&gt;G a</title>
<path fill="none" stroke="#000000" d="M391.7888,-97.0098C393.2551,-106.6878 390.6367,-115.5999 383.9336,-115.5999 379.7441,-115.5999 377.1503,-112.1186 376.152,-107.1449"/>
<polygon fill="#000000" stroke="#000000" points="379.651,-106.9841 376.0784,-97.0098 372.6512,-107.035 379.651,-106.9841"/>
<text text-anchor="middle" x="383.9336" y="-118.3999" font-family="Times,serif" font-size="14.00" fill="#000000">G id</text>
</g>
<!-- G b -->
<g id="node5" class="node">
<title>G b</title>
<ellipse fill="none" stroke="#000000" cx="212.2979" cy="-61.5999" rx="27" ry="18"/>
<text text-anchor="middle" x="212.2979" y="-57.3999" font-family="Times,serif" font-size="14.00" fill="#000000">G b</text>
</g>
<!-- G a&#45;&gt;G b -->
<g id="edge6" class="edge">
<title>G a&#45;&gt;G b</title>
<path fill="none" stroke="#000000" d="M357.1155,-76.7874C328.1049,-73.745 281.6597,-68.8741 249.2131,-65.4713"/>
<polygon fill="#000000" stroke="#000000" points="249.5208,-61.9845 239.2103,-64.4223 248.7907,-68.9463 249.5208,-61.9845"/>
<text text-anchor="middle" x="309.6284" y="-76.3999" font-family="Times,serif" font-size="14.00" fill="#000000">G g</text>
</g>
<!-- G c -->
<g id="node6" class="node">
<title>G c</title>
<ellipse fill="none" stroke="#000000" cx="43" cy="-86.5999" rx="27" ry="18"/>
<text text-anchor="middle" x="43" y="-82.3999" font-family="Times,serif" font-size="14.00" fill="#000000">G c</text>
</g>
<!-- G a&#45;&gt;G c -->
<g id="edge8" class="edge">
<title>G a&#45;&gt;G c</title>
<path fill="none" stroke="#000000" d="M366.4528,-93.6215C352.0727,-103.7297 330.7001,-115.5999 309.6284,-115.5999 309.6284,-115.5999 309.6284,-115.5999 116.1362,-115.5999 100.7485,-115.5999 84.7407,-109.9839 71.6384,-103.6947"/>
<polygon fill="#000000" stroke="#000000" points="73.154,-100.5383 62.6619,-99.0668 69.9464,-106.7601 73.154,-100.5383"/>
<text text-anchor="middle" x="212.2979" y="-118.3999" font-family="Times,serif" font-size="14.00" fill="#000000">G f . g = G f . G g</text>
</g>
<!-- G b&#45;&gt;G c -->
<g id="edge7" class="edge">
<title>G b&#45;&gt;G c</title>
<path fill="none" stroke="#000000" d="M185.8451,-65.5062C157.3535,-69.7135 111.8133,-76.4383 79.8289,-81.1614"/>
<polygon fill="#000000" stroke="#000000" points="78.9272,-77.7565 69.5458,-82.6799 79.9499,-84.6814 78.9272,-77.7565"/>
<text text-anchor="middle" x="116.1362" y="-80.3999" font-family="Times,serif" font-size="14.00" fill="#000000">G f</text>
</g>
<!-- F a -->
<g id="node7" class="node">
<title>F a</title>
<ellipse fill="none" stroke="#000000" cx="383.9336" cy="-193.5999" rx="27" ry="18"/>
<text text-anchor="middle" x="383.9336" y="-189.3999" font-family="Times,serif" font-size="14.00" fill="#000000">F a</text>
</g>
<!-- F a&#45;&gt;F a -->
<g id="edge9" class="edge">
<title>F a&#45;&gt;F a</title>
<path fill="none" stroke="#000000" d="M391.7888,-211.0098C393.2551,-220.6878 390.6367,-229.5999 383.9336,-229.5999 379.7441,-229.5999 377.1503,-226.1186 376.152,-221.1449"/>
<polygon fill="#000000" stroke="#000000" points="379.651,-220.9841 376.0784,-211.0098 372.6512,-221.035 379.651,-220.9841"/>
<text text-anchor="middle" x="383.9336" y="-232.3999" font-family="Times,serif" font-size="14.00" fill="#000000">F id</text>
</g>
<!-- F b -->
<g id="node8" class="node">
<title>F b</title>
<ellipse fill="none" stroke="#000000" cx="212.2979" cy="-193.5999" rx="27" ry="18"/>
<text text-anchor="middle" x="212.2979" y="-189.3999" font-family="Times,serif" font-size="14.00" fill="#000000">F b</text>
</g>
<!-- F a&#45;&gt;F b -->
<g id="edge10" class="edge">
<title>F a&#45;&gt;F b</title>
<path fill="none" stroke="#000000" d="M356.7374,-193.5999C327.8631,-193.5999 282.0289,-193.5999 249.7499,-193.5999"/>
<polygon fill="#000000" stroke="#000000" points="249.3668,-190.1 239.3668,-193.5999 249.3668,-197.1 249.3668,-190.1"/>
<text text-anchor="middle" x="309.6284" y="-196.3999" font-family="Times,serif" font-size="14.00" fill="#000000">F g</text>
</g>
<!-- F c -->
<g id="node9" class="node">
<title>F c</title>
<ellipse fill="none" stroke="#000000" cx="43" cy="-218.5999" rx="27" ry="18"/>
<text text-anchor="middle" x="43" y="-214.3999" font-family="Times,serif" font-size="14.00" fill="#000000">F c</text>
</g>
<!-- F a&#45;&gt;F c -->
<g id="edge12" class="edge">
<title>F a&#45;&gt;F c</title>
<path fill="none" stroke="#000000" d="M371.931,-209.8017C358.6385,-225.7077 335.622,-247.5999 309.6284,-247.5999 309.6284,-247.5999 309.6284,-247.5999 116.1362,-247.5999 100.7485,-247.5999 84.7407,-241.9839 71.6384,-235.6947"/>
<polygon fill="#000000" stroke="#000000" points="73.154,-232.5383 62.6619,-231.0668 69.9464,-238.7601 73.154,-232.5383"/>
<text text-anchor="middle" x="212.2979" y="-250.3999" font-family="Times,serif" font-size="14.00" fill="#000000">F f . g = F f . F g</text>
</g>
<!-- F b&#45;&gt;F c -->
<g id="edge11" class="edge">
<title>F b&#45;&gt;F c</title>
<path fill="none" stroke="#000000" d="M185.8451,-197.5062C157.3535,-201.7135 111.8133,-208.4383 79.8289,-213.1614"/>
<polygon fill="#000000" stroke="#000000" points="78.9272,-209.7565 69.5458,-214.6799 79.9499,-216.6814 78.9272,-209.7565"/>
<text text-anchor="middle" x="116.1362" y="-211.3999" font-family="Times,serif" font-size="14.00" fill="#000000">F f</text>
</g>
<!-- functorG&#45;&gt;G a -->
<g id="edge16" class="edge">
<title>functorG&#45;&gt;G a</title>
<path fill="none" stroke="#000000" d="M447.9174,-97.0376C442.4129,-95.5374 435.6535,-93.6952 428.6128,-91.7764"/>
<polygon fill="#000000" stroke="#000000" points="429.4973,-88.3899 418.9289,-89.1372 427.6567,-95.1436 429.4973,-88.3899"/>
</g>
<!-- functorF&#45;&gt;F a -->
<g id="edge17" class="edge">
<title>functorF&#45;&gt;F a</title>
<path fill="none" stroke="#000000" d="M448.9489,-164.0687C443.185,-166.6867 435.8881,-170.0011 428.2814,-173.4562"/>
<polygon fill="#000000" stroke="#000000" points="426.5888,-170.3809 418.9315,-177.7032 429.4837,-176.7542 426.5888,-170.3809"/>
</g>
<!-- functorF&#45;&gt;functorG -->
<g id="edge13" class="edge">
<title>functorF&#45;&gt;functorG</title>
<path fill="none" stroke="#000000" d="M460.9888,-147.4513C460.9888,-140.2375 460.9888,-130.6117 460.9888,-121.9621"/>
<polygon fill="#000000" stroke="#000000" points="464.4889,-121.7829 460.9888,-111.7829 457.4889,-121.7829 464.4889,-121.7829"/>
<text text-anchor="middle" x="470.9888" y="-125.3999" font-family="Times,serif" font-size="14.00" fill="#000000">η</text>
</g>
</g>
</svg>
