<?xml version="1.0" encoding="UTF-8" standalone="no"?>
<!DOCTYPE svg PUBLIC "-//W3C//DTD SVG 1.1//EN"
 "http://www.w3.org/Graphics/SVG/1.1/DTD/svg11.dtd">
<!-- Generated by graphviz version 2.40.1 (20161225.0304)
 -->
<!-- Title: %3 Pages: 1 -->
<svg width="450pt" height="98pt"
 viewBox="0.00 0.00 449.79 98.00" xmlns="http://www.w3.org/2000/svg" xmlns:xlink="http://www.w3.org/1999/xlink">
<g id="graph0" class="graph" transform="scale(1 1) rotate(0) translate(4 94)">
<title>%3</title>
<polygon fill="#ffffff" stroke="transparent" points="-4,4 -4,-94 445.7861,-94 445.7861,4 -4,4"/>
<g id="clust1" class="cluster">
<title>cluster_C</title>
<polygon fill="none" stroke="#000000" stroke-dasharray="1,5" points="234.7861,-8 234.7861,-82 433.7861,-82 433.7861,-8 234.7861,-8"/>
<text text-anchor="middle" x="334.2861" y="-66.8" font-family="Times,serif" font-size="14.00" fill="#000000">C</text>
</g>
<g id="clust2" class="cluster">
<title>cluster_D</title>
<polygon fill="none" stroke="#000000" stroke-dasharray="1,5" points="8,-8 8,-82 207,-82 207,-8 8,-8"/>
<text text-anchor="middle" x="107.5" y="-66.8" font-family="Times,serif" font-size="14.00" fill="#000000">D</text>
</g>
<!-- a -->
<g id="node1" class="node">
<title>a</title>
<ellipse fill="none" stroke="#000000" cx="398.7861" cy="-34" rx="27" ry="18"/>
<text text-anchor="middle" x="398.7861" y="-29.8" font-family="Times,serif" font-size="14.00" fill="#000000">a</text>
</g>
<!-- b -->
<g id="node2" class="node">
<title>b</title>
<ellipse fill="none" stroke="#000000" cx="269.7861" cy="-34" rx="27" ry="18"/>
<text text-anchor="middle" x="269.7861" y="-29.8" font-family="Times,serif" font-size="14.00" fill="#000000">b</text>
</g>
<!-- a&#45;&gt;b -->
<g id="edge1" class="edge">
<title>a&#45;&gt;b</title>
<path fill="none" stroke="#000000" d="M371.7435,-34C352.9091,-34 327.5537,-34 306.8404,-34"/>
<polygon fill="#000000" stroke="#000000" points="306.7932,-30.5001 296.7932,-34 306.7931,-37.5001 306.7932,-30.5001"/>
</g>
<!-- F a -->
<g id="node3" class="node">
<title>F a</title>
<ellipse fill="none" stroke="#000000" cx="172" cy="-34" rx="27" ry="18"/>
<text text-anchor="middle" x="172" y="-29.8" font-family="Times,serif" font-size="14.00" fill="#000000">F a</text>
</g>
<!-- b&#45;&gt;F a -->
<g id="edge3" class="edge">
<title>b&#45;&gt;F a</title>
<path fill="none" stroke="#000000" d="M234.7886,-34C226.5333,-34 217.7015,-34 209.3468,-34"/>
<polygon fill="#000000" stroke="#000000" points="217.0001,-30.5004 207,-34 216.9999,-37.5004 217.0001,-30.5004"/>
<text text-anchor="middle" x="220.8931" y="-36.8" font-family="Times,serif" font-size="14.00" fill="#000000">F</text>
</g>
<!-- F b -->
<g id="node4" class="node">
<title>F b</title>
<ellipse fill="none" stroke="#000000" cx="43" cy="-34" rx="27" ry="18"/>
<text text-anchor="middle" x="43" y="-29.8" font-family="Times,serif" font-size="14.00" fill="#000000">F b</text>
</g>
<!-- F a&#45;&gt;F b -->
<g id="edge2" class="edge">
<title>F a&#45;&gt;F b</title>
<path fill="none" stroke="#000000" d="M144.9574,-34C126.123,-34 100.7676,-34 80.0542,-34"/>
<polygon fill="#000000" stroke="#000000" points="80.0071,-30.5001 70.007,-34 80.007,-37.5001 80.0071,-30.5001"/>
</g>
</g>
</svg>
